<?xml version="1.0" encoding="utf-8"?>
<!-- Generator: Adobe Illustrator 22.1.0, SVG Export Plug-In . SVG Version: 6.00 Build 0)  -->
<svg version="1.1" id="Layer_1" xmlns="http://www.w3.org/2000/svg" xmlns:xlink="http://www.w3.org/1999/xlink" x="0px" y="0px"
	 viewBox="0 0 256 256" style="enable-background:new 0 0 256 256;" xml:space="preserve">
<style type="text/css">
	.st0{fill:#DCDDDE;}
</style>
<g id="Layer_2_1_">
	<g id="Layer_1-2">
		<g id="_Group_">
			<path id="_Compound_Path_" class="st0" d="M213.1,87.6C198.5,40.7,148.6,14.4,101.7,29c-28,8.7-49.8,30.6-58.5,58.5l-0.5,1.8
				l0.6,1.8c7.8,25.1,26.3,45.4,50.5,55.4h-0.5c2.7,1.9,4.3,5,4.3,8.3v22.4c0,2.9,2.3,5.3,5.2,5.3h1.2c3,0,5.4-2.4,5.4-5.4v-11.7
				c0-1.1,1-2,2.1-2c1,0,2.1,0.5,2.1,2.5v48.9c0,2.9,2.4,5.3,5.3,5.3c0,0,0,0,0,0h1.2c3,0,5.4-2.4,5.4-5.4v-46.4
				c0-1.2,1-2.1,2.1-2.1c1.2,0,2.1,1,2.1,2.1v69.1c0,3,2.4,5.4,5.4,5.4h1.2c2.9,0,5.3-2.4,5.3-5.3l0,0v-66.4c0-2,1.2-2.5,2.1-2.5
				c1.1,0,2.1,0.9,2.1,2v27.6c0,3,2.4,5.4,5.4,5.4h1.2c2.9,0,5.3-2.4,5.3-5.3l0,0V155c0-3.3,1.6-6.3,4.3-8.2
				c24.5-10,43.2-30.5,50.9-55.8l0.6-1.8L213.1,87.6z M128.2,135.8c-33.5,0-60.1-15.4-73.3-46.6c13.5-40.5,57.3-62.3,97.8-48.7
				c23,7.7,41.1,25.8,48.8,48.9C188.6,120.4,161.6,135.8,128.2,135.8z"/>
			<circle id="_Path_" class="st0" cx="127.8" cy="85" r="25.3"/>
		</g>
	</g>
</g>
</svg>
