<svg xmlns="http://www.w3.org/2000/svg" viewBox="0 0 186.751 105.075" width="183" height="102"><defs><style>.a,.b{fill:none;}.a,.d{stroke:#e39700;stroke-linecap:round;}.a,.b,.c,.d{stroke-miterlimit:10;stroke-width:3px;}.b,.c{stroke:#6d6d6d;}.c,.d{fill:#424242;}</style></defs><g transform="translate(-1001.622 -2720.5)"><g transform="translate(-2 1488)"><path class="a" d="M11.9,3.9,2.6,20.072H21.279Z" transform="translate(1026.091 1250.469)"/><ellipse class="a" cx="8.491" cy="8.491" rx="8.491" ry="8.491" transform="translate(1147.354 1255.624)"/><g transform="translate(999.78 1239.964)"><circle class="b" cx="19.552" cy="19.552" r="19.552" transform="translate(18.668 5)"/><path class="b" d="M51.707,49.452a2.718,2.718,0,0,0-2.474.239A19.309,19.309,0,0,1,38.22,53.043a20.131,20.131,0,0,1-11.013-3.352,2.718,2.718,0,0,0-2.474-.239A34,34,0,0,0,5.5,71.717a43.485,43.485,0,0,0,65.441,0A33.6,33.6,0,0,0,51.707,49.452Z" transform="translate(0 -8.938)"/></g><g transform="translate(1117.78 1239.964)"><circle class="b" cx="19.552" cy="19.552" r="19.552" transform="translate(18.668 5)"/><path class="b" d="M51.707,49.452a2.718,2.718,0,0,0-2.474.239A19.309,19.309,0,0,1,38.22,53.043a20.131,20.131,0,0,1-11.013-3.352,2.718,2.718,0,0,0-2.474-.239A34,34,0,0,0,5.5,71.717a43.485,43.485,0,0,0,65.441,0A33.6,33.6,0,0,0,51.707,49.452Z" transform="translate(0 -8.938)"/></g><g transform="translate(1045.51 1229)"><circle class="c" cx="27.482" cy="27.482" r="27.482" transform="translate(24.008 5)"/><path class="c" d="M70.447,49.529a3.82,3.82,0,0,0-3.477.337A27.139,27.139,0,0,1,51.49,54.577,28.3,28.3,0,0,1,36.01,49.866a3.82,3.82,0,0,0-3.477-.337A47.793,47.793,0,0,0,5.5,80.825a61.12,61.12,0,0,0,91.98,0A47.219,47.219,0,0,0,70.447,49.529Z" transform="translate(0 5.387)"/></g><path class="d" d="M51.993,1.9,38.9,11.369l5.027,15.548h16.25L65.2,11.369Z" transform="translate(1044.623 1246.25)"/></g></g></svg>