<svg xmlns="http://www.w3.org/2000/svg" viewBox="0 0 29.797 34.054" width="30" height="34"><defs><style>.a{fill:#eee;}</style></defs><path class="a" d="M95.937,103.9a1.9,1.9,0,1,0,1.737,1.89A1.814,1.814,0,0,0,95.937,103.9Zm6.215,0a1.9,1.9,0,1,0,1.737,1.89A1.814,1.814,0,0,0,102.152,103.9Z" transform="translate(-84.12 -89.614)"/><path class="a" d="M61.307,20H38.491A3.5,3.5,0,0,0,35,23.508v23.02a3.5,3.5,0,0,0,3.491,3.508H57.8l-.9-3.15,2.179,2.026,2.06,1.907L64.8,54.054V23.508A3.5,3.5,0,0,0,61.307,20ZM54.734,42.237s-.613-.732-1.124-1.379a5.373,5.373,0,0,0,3.082-2.026,9.743,9.743,0,0,1-1.958,1,11.207,11.207,0,0,1-2.469.732,11.928,11.928,0,0,1-4.41-.017,14.294,14.294,0,0,1-2.5-.732,9.977,9.977,0,0,1-1.243-.579c-.051-.034-.1-.051-.153-.085a.235.235,0,0,1-.068-.051c-.306-.17-.477-.289-.477-.289a5.3,5.3,0,0,0,2.98,2.009c-.511.647-1.141,1.413-1.141,1.413a6.173,6.173,0,0,1-5.193-2.588,22.8,22.8,0,0,1,2.452-9.927,8.42,8.42,0,0,1,4.785-1.788l.17.2a11.487,11.487,0,0,0-4.478,2.231s.375-.2,1-.494A12.787,12.787,0,0,1,47.855,28.8a1.678,1.678,0,0,1,.289-.034,14.407,14.407,0,0,1,3.439-.034,13.88,13.88,0,0,1,5.125,1.635,11.332,11.332,0,0,0-4.24-2.162l.238-.272a8.42,8.42,0,0,1,4.785,1.788,22.8,22.8,0,0,1,2.452,9.927A6.224,6.224,0,0,1,54.734,42.237Z" transform="translate(-35 -20)"/></svg>