<svg xmlns="http://www.w3.org/2000/svg" viewBox="0 0 33.029 32.133" width="33" height="32"><defs><style>.a{fill:#eee;fill-rule:evenodd;}</style></defs><path class="a" d="M16.464,0a16.494,16.494,0,0,0-5.252,32.12c.808.1,1.111-.4,1.111-.808V28.484c-4.545,1.01-5.555-2.222-5.555-2.222a4.171,4.171,0,0,0-1.818-2.424c-1.515-1.01.1-1.01.1-1.01a3.519,3.519,0,0,1,2.525,1.717,3.5,3.5,0,0,0,4.747,1.414,3.517,3.517,0,0,1,1.01-2.222c-3.636-.4-7.474-1.818-7.474-8.181a6.262,6.262,0,0,1,1.717-4.444,5.981,5.981,0,0,1,.2-4.242s1.414-.4,4.545,1.717a14.114,14.114,0,0,1,4.141-.505,18.591,18.591,0,0,1,4.141.505c3.131-2.121,4.545-1.717,4.545-1.717a6.324,6.324,0,0,1,.2,4.343,6.533,6.533,0,0,1,1.717,4.444c0,6.363-3.838,7.676-7.474,8.08a3.858,3.858,0,0,1,1.111,3.03v4.545c0,.4.3.909,1.111.808A16.494,16.494,0,0,0,16.464,0Z"/></svg>