<svg xmlns="http://www.w3.org/2000/svg" viewBox="0 0 159.188 60.697" width="156" height="58"><defs><style>.a,.b,.c{fill:none;stroke-width:3px;}.a{stroke:#6d6d6d;}.b{stroke:#707070;opacity:0.2;}.c{stroke:#e39700;}</style></defs><g transform="translate(-1015.383 -1228.649)"><g transform="translate(1035.18 1273.555)"><path class="a" d="M117.572,54.795a2.994,2.994,0,0,0,2.92-2.92V46.62a2.994,2.994,0,0,0-2.92-2.92H68.52a2.994,2.994,0,0,0-2.92,2.92v5.256a2.994,2.994,0,0,0,2.92,2.92Z" transform="translate(-65.6 -43.7)"/></g><g transform="translate(1016.883 1273.555)"><path class="a" d="M64.015,54.6A3.058,3.058,0,0,0,67.1,51.732V46.568A3.058,3.058,0,0,0,64.015,43.7h-4.73A3.058,3.058,0,0,0,56.2,46.568v5.163A3.058,3.058,0,0,0,59.285,54.6Z" transform="translate(-56.2 -43.7)"/></g><g transform="translate(1016.883 1251.95)"><path class="a" d="M64.015,43.695a3.082,3.082,0,0,0,3.085-2.92V35.52a3.082,3.082,0,0,0-3.085-2.92h-4.73A3.082,3.082,0,0,0,56.2,35.52v5.256a3.082,3.082,0,0,0,3.085,2.92Z" transform="translate(-56.2 -32.6)"/></g><g transform="translate(1035.18 1230.149)"><path class="a" d="M117.572,32.495a2.994,2.994,0,0,0,2.92-2.92V24.32a2.994,2.994,0,0,0-2.92-2.92H68.52a2.994,2.994,0,0,0-2.92,2.92v5.256a2.994,2.994,0,0,0,2.92,2.92Z" transform="translate(-65.6 -21.4)"/></g><g transform="translate(1016.883 1230.149)"><path class="a" d="M64.015,32.495a3.082,3.082,0,0,0,3.085-2.92V24.32a3.082,3.082,0,0,0-3.085-2.92h-4.73A3.082,3.082,0,0,0,56.2,24.32v5.256a3.082,3.082,0,0,0,3.085,2.92Z" transform="translate(-56.2 -21.4)"/></g><path class="b" d="M1123.2,2978.051l29.465-16.717" transform="translate(-33.485 -1725.384)"/><path class="b" d="M1123.2,2981.121l29.176-19.787" transform="translate(3108.969 -1200.551) rotate(60)"/><g transform="translate(1035.18 1251.95)"><path class="c" d="M117.572,43.695a2.994,2.994,0,0,0,2.92-2.92V35.52a2.994,2.994,0,0,0-2.92-2.92H68.52a2.994,2.994,0,0,0-2.92,2.92v5.256a2.994,2.994,0,0,0,2.92,2.92Z" transform="translate(-65.6 -32.6)"/></g><g transform="translate(1117.18 1251.95)"><path class="c" d="M117.572,75.695a2.994,2.994,0,0,0,2.92-2.92V35.52a2.994,2.994,0,0,0-2.92-2.92H68.52a2.994,2.994,0,0,0-2.92,2.92V72.775a2.994,2.994,0,0,0,2.92,2.92Z" transform="translate(-64.6 -49.6)"/></g></g></svg>