<svg xmlns="http://www.w3.org/2000/svg" viewBox="0 0 207.565 108.633" width="208" height="109"><defs><style>.a,.b{fill:#eee;}.a{stroke:#707070;stroke-width:3px;}.c{fill:#e39700;}.d,.f{stroke:none;}.e{fill:none;}.f{fill:#707070;}</style></defs><g transform="translate(-987.106 -1442.5)"><g transform="translate(-8 -4)"><g class="a" transform="translate(1004.077 1446.5)"><rect class="d" width="127.828" height="85.253"/><rect class="e" x="1.5" y="1.5" width="124.828" height="82.253"/></g><g class="b" transform="translate(995.12 1525.201)"><path class="d" d="M 142.9547424316406 10.64916515350342 L 33.99028396606445 10.64916515350342 L 1.50922429561615 10.64916515350342 L 1.50922429561615 1.500005006790161 L 142.9547424316406 1.500005006790161 L 142.9547424316406 10.64916515350342 Z"/><path class="f" d="M 141.4547424316406 9.149168014526367 L 141.4547424316406 3.000001668930054 L 3.009241104125977 3.000001668930054 L 3.009241104125977 9.149168014526367 L 33.99028396606445 9.149168014526367 L 141.4547424316406 9.149168014526367 M 144.4547424316406 12.14916801452637 C 144.4547424316406 12.14916801452637 70.10167694091797 12.14916801452637 33.99028396606445 12.14916801452637 C 3.596248149871826 12.14916801452637 0.2932471036911011 12.14916801452637 0.009241007268428802 12.14916801452637 L 0.009241007268428802 1.627604206078104e-06 L 144.4547424316406 1.627604206078104e-06 L 144.4547424316406 12.14916801452637 Z M 0.009241007268428802 12.14916801452637 L -0.01448588073253632 12.14916801452637 C -0.01448588073253632 12.14916801452637 -0.008553138934075832 12.14916801452637 0.009241007268428802 12.14916801452637 Z"/></g><g transform="translate(1106.43 1464.375)"><g class="a" transform="translate(0 0)"><rect class="d" width="67.749" height="90.758"/><rect class="e" x="1.5" y="1.5" width="64.749" height="87.758"/></g><g class="a" transform="translate(0 79.594)"><rect class="d" width="67.749" height="11.164"/><rect class="e" x="1.5" y="1.5" width="64.749" height="8.164"/></g></g><g transform="translate(1161.757 1474.589)"><g class="a"><rect class="d" width="40.722" height="63.083"/><rect class="e" x="1.5" y="1.5" width="37.722" height="60.083"/></g><g class="a" transform="translate(0 52.942)"><rect class="d" width="40.913" height="10.141"/><rect class="e" x="1.5" y="1.5" width="37.913" height="7.141"/></g></g><g transform="translate(1169.073 1492.726)"><path class="c" d="M12.808,36.116A8.057,8.057,0,0,1,4.76,28.587H6.577L3.289,24,0,28.587H1.846A10.985,10.985,0,0,0,20.568,35.8L18.52,33.75A8.056,8.056,0,0,1,12.808,36.116Z" transform="translate(0 -17.077)"/><path class="c" d="M36.164,10.1A10.939,10.939,0,0,0,25.26,0,11.032,11.032,0,0,0,17.5,3.2L19.548,5.25a8.079,8.079,0,0,1,11.424,0A7.9,7.9,0,0,1,33.28,10.1H31.491l3.289,4.587,3.26-4.587Z" transform="translate(-12.452)"/></g><g transform="translate(1055.073 1478.726)"><path class="c" d="M12.808,36.116A8.057,8.057,0,0,1,4.76,28.587H6.577L3.289,24,0,28.587H1.846A10.985,10.985,0,0,0,20.568,35.8L18.52,33.75A8.056,8.056,0,0,1,12.808,36.116Z" transform="translate(0 -17.077)"/><path class="c" d="M36.164,10.1A10.939,10.939,0,0,0,25.26,0,11.032,11.032,0,0,0,17.5,3.2L19.548,5.25a8.079,8.079,0,0,1,11.424,0A7.9,7.9,0,0,1,33.28,10.1H31.491l3.289,4.587,3.26-4.587Z" transform="translate(-12.452)"/></g><g transform="translate(1129.073 1496.726)"><path class="c" d="M12.808,36.116A8.057,8.057,0,0,1,4.76,28.587H6.577L3.289,24,0,28.587H1.846A10.985,10.985,0,0,0,20.568,35.8L18.52,33.75A8.056,8.056,0,0,1,12.808,36.116Z" transform="translate(0 -17.077)"/><path class="c" d="M36.164,10.1A10.939,10.939,0,0,0,25.26,0,11.032,11.032,0,0,0,17.5,3.2L19.548,5.25a8.079,8.079,0,0,1,11.424,0A7.9,7.9,0,0,1,33.28,10.1H31.491l3.289,4.587,3.26-4.587Z" transform="translate(-12.452)"/></g></g></g></svg>